# xmcd
# 
# Track frame offsets:
#     150
#     17328
#     29154
#     41561
#     55819
#     68427
#     83135
#     96583
#     107867
#     121825
#     135757
#     145495
# 
# Disc length: 2199
# 
# Revision: 2
# Processed by: cddbd v1.5.2PL0 Copyright (c) Steve Scherf et al.
# Submitted via: fre:ac v1.0.17
# 
DISCID=9d08950c
DTITLE=Sergio Endrigo - I Grandi Successi Originali cd1
DYEAR=0
DGENRE=Pop
TTITLE0=Io the amo solo te
TTITLE1=Viva Maddalena
TTITLE2=La brava gente
TTITLE3=Annamaria
TTITLE4=Se le cose stanno così
TTITLE5=Basta così
TTITLE6=Era d'estate
TTITLE7=La periferia
TTITLE8=Vecchia balera
TTITLE9=Adesso si
TTITLE10=Via broletto 34
TTITLE11=Elisa Elisa
EXTD=
EXTT0=
EXTT1=
EXTT2=
EXTT3=
EXTT4=
EXTT5=
EXTT6=
EXTT7=
EXTT8=
EXTT9=
EXTT10=
EXTT11=
PLAYORDER=
